# xmcd
#
# Track frame offsets: 
#        150
#        18739
#        37958
#        52424
#        78353
#        96968
#        118987
#        140800
#        152852
#        172016
#
# Disc length: 2587 seconds
#
# Revision: 0
# Processed by: cddbd v1.5.2PL0 Copyright (c) Steve Scherf et al.
# Submitted via: ExactAudioCopy v0.99pb5
#
DISCID=920a190a
DTITLE=Todd Thibaud - Live At The Rockpalast Crossroads Festival [CD 2
DTITLE=)
DYEAR=2011
DGENRE=Blues Rock
TTITLE0=I Go On
TTITLE1=Isn't Love My Friend
TTITLE2=Blue Skies Back
TTITLE3=Man That I Am
TTITLE4=Stone I Can't Roll
TTITLE5=Simple Man
TTITLE6=You and Me
TTITLE7=Dragging Me Down
TTITLE8=Finding Out
TTITLE9=Dead Flowers
EXTD=
EXTT0=
EXTT1=
EXTT2=
EXTT3=
EXTT4=
EXTT5=
EXTT6=
EXTT7=
EXTT8=
EXTT9=
PLAYORDER=
